<mxfile host="app.diagrams.net" modified="2023-04-25T21:10:29.882Z" agent="Mozilla/5.0 (Windows NT 10.0; Win64; x64; rv:109.0) Gecko/20100101 Firefox/112.0" etag="1cUXgEG4A-hmBCtiLu6r" version="21.2.1" type="google">
  <diagram id="C5RBs43oDa-KdzZeNtuy" name="Page-1">
    <mxGraphModel grid="1" page="1" gridSize="10" guides="1" tooltips="1" connect="1" arrows="1" fold="1" pageScale="1" pageWidth="827" pageHeight="1169" math="0" shadow="0">
      <root>
        <mxCell id="WIyWlLk6GJQsqaUBKTNV-0" />
        <mxCell id="WIyWlLk6GJQsqaUBKTNV-1" parent="WIyWlLk6GJQsqaUBKTNV-0" />
        <mxCell id="C6LJLUUqIyaHrq4dWDmy-4" style="edgeStyle=orthogonalEdgeStyle;rounded=0;orthogonalLoop=1;jettySize=auto;html=1;exitX=1;exitY=0.5;exitDx=0;exitDy=0;" edge="1" parent="WIyWlLk6GJQsqaUBKTNV-1" source="WIyWlLk6GJQsqaUBKTNV-3" target="C6LJLUUqIyaHrq4dWDmy-2">
          <mxGeometry relative="1" as="geometry">
            <mxPoint x="330" y="100" as="targetPoint" />
          </mxGeometry>
        </mxCell>
        <mxCell id="WIyWlLk6GJQsqaUBKTNV-3" value="Αρχικοποίηση των LEDs, PIN5 του PortF και ADC" style="rounded=1;whiteSpace=wrap;html=1;fontSize=12;glass=0;strokeWidth=1;shadow=0;" vertex="1" parent="WIyWlLk6GJQsqaUBKTNV-1">
          <mxGeometry x="160" y="80" width="120" height="40" as="geometry" />
        </mxCell>
        <mxCell id="C6LJLUUqIyaHrq4dWDmy-26" value="" style="edgeStyle=orthogonalEdgeStyle;rounded=0;orthogonalLoop=1;jettySize=auto;html=1;" edge="1" parent="WIyWlLk6GJQsqaUBKTNV-1" source="WIyWlLk6GJQsqaUBKTNV-7" target="C6LJLUUqIyaHrq4dWDmy-24">
          <mxGeometry relative="1" as="geometry" />
        </mxCell>
        <mxCell id="WIyWlLk6GJQsqaUBKTNV-7" value="FreeRunningMode ADC" style="rounded=1;whiteSpace=wrap;html=1;fontSize=12;glass=0;strokeWidth=1;shadow=0;" vertex="1" parent="WIyWlLk6GJQsqaUBKTNV-1">
          <mxGeometry x="430" y="80" width="120" height="40" as="geometry" />
        </mxCell>
        <mxCell id="C6LJLUUqIyaHrq4dWDmy-1" style="edgeStyle=orthogonalEdgeStyle;rounded=0;orthogonalLoop=1;jettySize=auto;html=1;entryX=0;entryY=0.5;entryDx=0;entryDy=0;" edge="1" parent="WIyWlLk6GJQsqaUBKTNV-1" source="C6LJLUUqIyaHrq4dWDmy-0" target="WIyWlLk6GJQsqaUBKTNV-3">
          <mxGeometry relative="1" as="geometry" />
        </mxCell>
        <mxCell id="C6LJLUUqIyaHrq4dWDmy-0" value="Start" style="ellipse;whiteSpace=wrap;html=1;" vertex="1" parent="WIyWlLk6GJQsqaUBKTNV-1">
          <mxGeometry x="40" y="65" width="70" height="70" as="geometry" />
        </mxCell>
        <mxCell id="C6LJLUUqIyaHrq4dWDmy-11" value="" style="edgeStyle=orthogonalEdgeStyle;rounded=0;orthogonalLoop=1;jettySize=auto;html=1;" edge="1" parent="WIyWlLk6GJQsqaUBKTNV-1" source="C6LJLUUqIyaHrq4dWDmy-2" target="WIyWlLk6GJQsqaUBKTNV-7">
          <mxGeometry relative="1" as="geometry" />
        </mxCell>
        <mxCell id="C6LJLUUqIyaHrq4dWDmy-2" value="while(1)" style="rhombus;whiteSpace=wrap;html=1;shadow=0;fontFamily=Helvetica;fontSize=12;align=center;strokeWidth=1;spacing=6;spacingTop=-4;" vertex="1" parent="WIyWlLk6GJQsqaUBKTNV-1">
          <mxGeometry x="310" y="62.5" width="80" height="75" as="geometry" />
        </mxCell>
        <mxCell id="C6LJLUUqIyaHrq4dWDmy-12" value="έχει περάσει χρόνος 3s;" style="rhombus;whiteSpace=wrap;html=1;shadow=0;fontFamily=Helvetica;fontSize=12;align=center;strokeWidth=1;spacing=6;spacingTop=-4;" vertex="1" parent="WIyWlLk6GJQsqaUBKTNV-1">
          <mxGeometry x="940" y="52.5" width="90" height="95" as="geometry" />
        </mxCell>
        <mxCell id="C6LJLUUqIyaHrq4dWDmy-17" value="" style="rounded=1;whiteSpace=wrap;html=1;fontSize=12;glass=0;strokeWidth=1;shadow=0;" vertex="1" parent="WIyWlLk6GJQsqaUBKTNV-1">
          <mxGeometry x="890" y="-20" width="120" height="40" as="geometry" />
        </mxCell>
        <mxCell id="C6LJLUUqIyaHrq4dWDmy-20" value="&lt;div&gt;Ενεργοποίηση PIN5&lt;/div&gt;&lt;div&gt;PΟRTF &lt;br&gt;&lt;/div&gt;&lt;div&gt;(πάτημα διακόπτη)&lt;br&gt;&lt;/div&gt;" style="shape=parallelogram;perimeter=parallelogramPerimeter;whiteSpace=wrap;html=1;fixedSize=1;" vertex="1" parent="WIyWlLk6GJQsqaUBKTNV-1">
          <mxGeometry x="650" y="-40" width="150" height="60" as="geometry" />
        </mxCell>
        <mxCell id="C6LJLUUqIyaHrq4dWDmy-21" value="" style="rhombus;whiteSpace=wrap;html=1;shadow=0;fontFamily=Helvetica;fontSize=12;align=center;strokeWidth=1;spacing=6;spacingTop=-4;" vertex="1" parent="WIyWlLk6GJQsqaUBKTNV-1">
          <mxGeometry x="530" y="-75" width="90" height="95" as="geometry" />
        </mxCell>
        <mxCell id="C6LJLUUqIyaHrq4dWDmy-29" value="" style="edgeStyle=orthogonalEdgeStyle;rounded=0;orthogonalLoop=1;jettySize=auto;html=1;" edge="1" parent="WIyWlLk6GJQsqaUBKTNV-1" source="C6LJLUUqIyaHrq4dWDmy-24" target="C6LJLUUqIyaHrq4dWDmy-28">
          <mxGeometry relative="1" as="geometry" />
        </mxCell>
        <mxCell id="C6LJLUUqIyaHrq4dWDmy-24" value="Κίνηση Ευθεία" style="rounded=1;whiteSpace=wrap;html=1;fontSize=12;glass=0;strokeWidth=1;shadow=0;" vertex="1" parent="WIyWlLk6GJQsqaUBKTNV-1">
          <mxGeometry x="600" y="80" width="120" height="40" as="geometry" />
        </mxCell>
        <mxCell id="C6LJLUUqIyaHrq4dWDmy-30" value="" style="edgeStyle=orthogonalEdgeStyle;rounded=0;orthogonalLoop=1;jettySize=auto;html=1;" edge="1" parent="WIyWlLk6GJQsqaUBKTNV-1" source="C6LJLUUqIyaHrq4dWDmy-28" target="C6LJLUUqIyaHrq4dWDmy-12">
          <mxGeometry relative="1" as="geometry" />
        </mxCell>
        <mxCell id="C6LJLUUqIyaHrq4dWDmy-36" value="" style="edgeStyle=orthogonalEdgeStyle;rounded=0;orthogonalLoop=1;jettySize=auto;html=1;strokeColor=#FF0000;" edge="1" parent="WIyWlLk6GJQsqaUBKTNV-1" source="C6LJLUUqIyaHrq4dWDmy-28" target="C6LJLUUqIyaHrq4dWDmy-35">
          <mxGeometry relative="1" as="geometry" />
        </mxCell>
        <mxCell id="C6LJLUUqIyaHrq4dWDmy-28" value="RES &amp;lt; 10;" style="rhombus;whiteSpace=wrap;html=1;shadow=0;fontFamily=Helvetica;fontSize=12;align=center;strokeWidth=1;spacing=6;spacingTop=-4;" vertex="1" parent="WIyWlLk6GJQsqaUBKTNV-1">
          <mxGeometry x="790" y="52.5" width="90" height="95" as="geometry" />
        </mxCell>
        <mxCell id="C6LJLUUqIyaHrq4dWDmy-31" value="όχι" style="text;html=1;align=center;verticalAlign=middle;resizable=0;points=[];autosize=1;strokeColor=none;fillColor=none;" vertex="1" parent="WIyWlLk6GJQsqaUBKTNV-1">
          <mxGeometry x="880" y="70" width="40" height="30" as="geometry" />
        </mxCell>
        <mxCell id="C6LJLUUqIyaHrq4dWDmy-39" value="" style="edgeStyle=orthogonalEdgeStyle;rounded=0;orthogonalLoop=1;jettySize=auto;html=1;" edge="1" parent="WIyWlLk6GJQsqaUBKTNV-1" source="C6LJLUUqIyaHrq4dWDmy-35" target="C6LJLUUqIyaHrq4dWDmy-38">
          <mxGeometry relative="1" as="geometry" />
        </mxCell>
        <mxCell id="C6LJLUUqIyaHrq4dWDmy-35" value="Παύση Κίνησης" style="rounded=1;whiteSpace=wrap;html=1;fontSize=12;glass=0;strokeWidth=1;shadow=0;" vertex="1" parent="WIyWlLk6GJQsqaUBKTNV-1">
          <mxGeometry x="775" y="240" width="120" height="40" as="geometry" />
        </mxCell>
        <mxCell id="C6LJLUUqIyaHrq4dWDmy-37" value="ISR&amp;nbsp; ADC_WCOMP interrupt" style="text;html=1;align=center;verticalAlign=middle;resizable=0;points=[];autosize=1;strokeColor=none;fillColor=none;" vertex="1" parent="WIyWlLk6GJQsqaUBKTNV-1">
          <mxGeometry x="660" y="180" width="180" height="30" as="geometry" />
        </mxCell>
        <mxCell id="C6LJLUUqIyaHrq4dWDmy-43" style="edgeStyle=orthogonalEdgeStyle;rounded=0;orthogonalLoop=1;jettySize=auto;html=1;" edge="1" parent="WIyWlLk6GJQsqaUBKTNV-1" source="C6LJLUUqIyaHrq4dWDmy-38" target="C6LJLUUqIyaHrq4dWDmy-42">
          <mxGeometry relative="1" as="geometry" />
        </mxCell>
        <mxCell id="C6LJLUUqIyaHrq4dWDmy-46" value="" style="edgeStyle=orthogonalEdgeStyle;rounded=0;orthogonalLoop=1;jettySize=auto;html=1;" edge="1" parent="WIyWlLk6GJQsqaUBKTNV-1" source="C6LJLUUqIyaHrq4dWDmy-38" target="C6LJLUUqIyaHrq4dWDmy-45">
          <mxGeometry relative="1" as="geometry" />
        </mxCell>
        <mxCell id="C6LJLUUqIyaHrq4dWDmy-38" value="Κινείται ευθεία;" style="rhombus;whiteSpace=wrap;html=1;shadow=0;fontFamily=Helvetica;fontSize=12;align=center;strokeWidth=1;spacing=6;spacingTop=-4;" vertex="1" parent="WIyWlLk6GJQsqaUBKTNV-1">
          <mxGeometry x="790" y="330" width="90" height="95" as="geometry" />
        </mxCell>
        <mxCell id="C6LJLUUqIyaHrq4dWDmy-48" value="" style="edgeStyle=orthogonalEdgeStyle;rounded=0;orthogonalLoop=1;jettySize=auto;html=1;" edge="1" parent="WIyWlLk6GJQsqaUBKTNV-1" source="C6LJLUUqIyaHrq4dWDmy-42" target="C6LJLUUqIyaHrq4dWDmy-47">
          <mxGeometry relative="1" as="geometry" />
        </mxCell>
        <mxCell id="C6LJLUUqIyaHrq4dWDmy-42" value="Κινείται ανάποδα;" style="rhombus;whiteSpace=wrap;html=1;shadow=0;fontFamily=Helvetica;fontSize=12;align=center;strokeWidth=1;spacing=6;spacingTop=-4;" vertex="1" parent="WIyWlLk6GJQsqaUBKTNV-1">
          <mxGeometry x="925" y="330" width="90" height="95" as="geometry" />
        </mxCell>
        <mxCell id="C6LJLUUqIyaHrq4dWDmy-44" value="όχι" style="text;html=1;align=center;verticalAlign=middle;resizable=0;points=[];autosize=1;strokeColor=none;fillColor=none;" vertex="1" parent="WIyWlLk6GJQsqaUBKTNV-1">
          <mxGeometry x="880" y="348" width="40" height="30" as="geometry" />
        </mxCell>
        <mxCell id="C6LJLUUqIyaHrq4dWDmy-45" value="Αύξηση counter γωνιών κατά 1" style="rounded=1;whiteSpace=wrap;html=1;fontSize=12;glass=0;strokeWidth=1;shadow=0;" vertex="1" parent="WIyWlLk6GJQsqaUBKTNV-1">
          <mxGeometry x="775" y="460" width="120" height="40" as="geometry" />
        </mxCell>
        <mxCell id="C6LJLUUqIyaHrq4dWDmy-47" value="Αύξηση counter γωνιών κατά 1" style="rounded=1;whiteSpace=wrap;html=1;fontSize=12;glass=0;strokeWidth=1;shadow=0;" vertex="1" parent="WIyWlLk6GJQsqaUBKTNV-1">
          <mxGeometry x="1060" y="357.5" width="120" height="40" as="geometry" />
        </mxCell>
        <mxCell id="C6LJLUUqIyaHrq4dWDmy-49" value="ναι" style="text;html=1;align=center;verticalAlign=middle;resizable=0;points=[];autosize=1;strokeColor=none;fillColor=none;" vertex="1" parent="WIyWlLk6GJQsqaUBKTNV-1">
          <mxGeometry x="1015" y="348" width="40" height="30" as="geometry" />
        </mxCell>
        <mxCell id="C6LJLUUqIyaHrq4dWDmy-50" value="" style="rhombus;whiteSpace=wrap;html=1;shadow=0;fontFamily=Helvetica;fontSize=12;align=center;strokeWidth=1;spacing=6;spacingTop=-4;" vertex="1" parent="WIyWlLk6GJQsqaUBKTNV-1">
          <mxGeometry x="790" y="537" width="90" height="95" as="geometry" />
        </mxCell>
      </root>
    </mxGraphModel>
  </diagram>
</mxfile>
